<?xml version="1.0" encoding="UTF-8" standalone="no"?>
<!-- Created with Inkscape (http://www.inkscape.org/) -->

<svg
   xmlns:dc="http://purl.org/dc/elements/1.1/"
   xmlns:cc="http://creativecommons.org/ns#"
   xmlns:rdf="http://www.w3.org/1999/02/22-rdf-syntax-ns#"
   xmlns:svg="http://www.w3.org/2000/svg"
   xmlns="http://www.w3.org/2000/svg"
   xmlns:sodipodi="http://sodipodi.sourceforge.net/DTD/sodipodi-0.dtd"
   xmlns:inkscape="http://www.inkscape.org/namespaces/inkscape"
   width="300"
   height="300"
   id="svg2"
   version="1.1"
   inkscape:version="0.48.2 r9819"
   sodipodi:docname="vertex_link_gauge_def.pdf">
  <defs
     id="defs4">
    <marker
       inkscape:stockid="Arrow2Mstart"
       orient="auto"
       refY="0.0"
       refX="0.0"
       id="Arrow2Mstart"
       style="overflow:visible">
      <path
         id="path3782"
         style="font-size:12.0;fill-rule:evenodd;stroke-width:0.62500000;stroke-linejoin:round"
         d="M 8.7185878,4.0337352 L -2.2072895,0.016013256 L 8.7185884,-4.0017078 C 6.9730900,-1.6296469 6.9831476,1.6157441 8.7185878,4.0337352 z "
         transform="scale(0.6) translate(0,0)" />
    </marker>
    <marker
       inkscape:stockid="Arrow2Lend"
       orient="auto"
       refY="0.0"
       refX="0.0"
       id="Arrow2Lend"
       style="overflow:visible;">
      <path
         id="path3779"
         style="font-size:12.0;fill-rule:evenodd;stroke-width:0.62500000;stroke-linejoin:round;"
         d="M 8.7185878,4.0337352 L -2.2072895,0.016013256 L 8.7185884,-4.0017078 C 6.9730900,-1.6296469 6.9831476,1.6157441 8.7185878,4.0337352 z "
         transform="scale(1.1) rotate(180) translate(1,0)" />
    </marker>
    <marker
       inkscape:stockid="Arrow1Mstart"
       orient="auto"
       refY="0.0"
       refX="0.0"
       id="Arrow1Mstart"
       style="overflow:visible">
      <path
         id="path3764"
         d="M 0.0,0.0 L 5.0,-5.0 L -12.5,0.0 L 5.0,5.0 L 0.0,0.0 z "
         style="fill-rule:evenodd;stroke:#000000;stroke-width:1.0pt;marker-start:none"
         transform="scale(0.4) translate(10,0)" />
    </marker>
    <marker
       inkscape:stockid="Arrow2Lstart"
       orient="auto"
       refY="0.0"
       refX="0.0"
       id="Arrow2Lstart"
       style="overflow:visible">
      <path
         id="path3776"
         style="font-size:12.0;fill-rule:evenodd;stroke-width:0.62500000;stroke-linejoin:round"
         d="M 8.7185878,4.0337352 L -2.2072895,0.016013256 L 8.7185884,-4.0017078 C 6.9730900,-1.6296469 6.9831476,1.6157441 8.7185878,4.0337352 z "
         transform="scale(1.1) translate(1,0)" />
    </marker>
    <clipPath
       id="clipPath3520"
       clipPathUnits="userSpaceOnUse">
      <path
         id="path3522"
         d="M 0,0 16,0 16,17 0,17 0,0 z" />
    </clipPath>
    <clipPath
       id="clipPath3574"
       clipPathUnits="userSpaceOnUse">
      <path
         id="path3576"
         d="M 0,0 16,0 16,17 0,17 0,0 z" />
    </clipPath>
    <clipPath
       id="clipPath3628"
       clipPathUnits="userSpaceOnUse">
      <path
         id="path3630"
         d="M 0,0 16,0 16,17 0,17 0,0 z" />
    </clipPath>
  </defs>
  <sodipodi:namedview
     id="base"
     pagecolor="#ffffff"
     bordercolor="#666666"
     borderopacity="1.0"
     inkscape:pageopacity="0.0"
     inkscape:pageshadow="2"
     inkscape:zoom="2.8"
     inkscape:cx="134.51799"
     inkscape:cy="214.24776"
     inkscape:document-units="px"
     inkscape:current-layer="layer1"
     showgrid="false"
     inkscape:window-width="1153"
     inkscape:window-height="626"
     inkscape:window-x="64"
     inkscape:window-y="0"
     inkscape:window-maximized="0" />
  <metadata
     id="metadata7">
    <rdf:RDF>
      <cc:Work
         rdf:about="">
        <dc:format>image/svg+xml</dc:format>
        <dc:type
           rdf:resource="http://purl.org/dc/dcmitype/StillImage" />
        <dc:title></dc:title>
      </cc:Work>
    </rdf:RDF>
  </metadata>
  <g
     inkscape:label="Layer 1"
     inkscape:groupmode="layer"
     id="layer1"
     transform="translate(0,-752.3622)">
    <g
       id="g5039">
      <path
         inkscape:connector-curvature="0"
         id="path2985"
         d="m 75.507818,909.22082 c 0,101.62878 0,101.91828 0,101.91828"
         style="fill:none;stroke:#000000;stroke-width:2.99999976;stroke-linecap:butt;stroke-linejoin:miter;stroke-opacity:1;marker-start:none" />
      <path
         style="fill:none;stroke:#000000;stroke-width:2.99999976;stroke-linecap:butt;stroke-linejoin:miter;stroke-opacity:1;marker-start:none"
         d="m 126.6102,961.51441 c -101.628776,0 -101.918311,0 -101.918311,0"
         id="path4763"
         inkscape:connector-curvature="0" />
    </g>
    <path
       style="fill:none;stroke:#000000;stroke-width:0.99999988px;stroke-linecap:butt;stroke-linejoin:miter;stroke-opacity:1"
       d="m 21.129238,777.51672 c 137.197482,0 137.197482,0 137.197482,0"
       id="path4765"
       inkscape:connector-curvature="0" />
    <path
       inkscape:connector-curvature="0"
       id="path4767"
       d="m 21.213202,801.35737 c 137.469588,0 137.469588,0 137.469588,0"
       style="fill:none;stroke:#000000;stroke-width:0.99999994px;stroke-linecap:butt;stroke-linejoin:miter;stroke-opacity:1" />
    <path
       style="fill:none;stroke:#000000;stroke-width:0.99999994px;stroke-linecap:butt;stroke-linejoin:miter;stroke-opacity:1"
       d="m 21.213202,825.1141 c 137.469588,0 137.469588,0 137.469588,0"
       id="path4769"
       inkscape:connector-curvature="0" />
    <path
       inkscape:connector-curvature="0"
       id="path4771"
       d="m 21.213202,848.87085 c 137.113738,0 137.113738,0 137.113738,0"
       style="fill:none;stroke:#000000;stroke-width:0.99999988px;stroke-linecap:butt;stroke-linejoin:miter;stroke-opacity:1" />
    <path
       style="fill:none;stroke:#000000;stroke-width:0.99999994px;stroke-linecap:butt;stroke-linejoin:miter;stroke-opacity:1"
       d="m 21.213202,872.62755 c 137.113518,0 137.113518,0 137.113518,0"
       id="path4773"
       inkscape:connector-curvature="0" />
    <path
       inkscape:connector-curvature="0"
       id="path4775"
       d="m 21.840831,777.33023 c 0,95.68749 0,95.68749 0,95.68749"
       style="fill:none;stroke:#000000;stroke-width:1px;stroke-linecap:butt;stroke-linejoin:miter;stroke-opacity:1" />
    <path
       style="fill:none;stroke:#000000;stroke-width:1px;stroke-linecap:butt;stroke-linejoin:miter;stroke-opacity:1"
       d="m 49.221787,777.33023 c 0,95.68749 0,95.68749 0,95.68749"
       id="path4777"
       inkscape:connector-curvature="0" />
    <path
       inkscape:connector-curvature="0"
       id="path4779"
       d="m 76.602739,777.33023 c 0,95.68749 0,95.68749 0,95.68749"
       style="fill:none;stroke:#000000;stroke-width:1px;stroke-linecap:butt;stroke-linejoin:miter;stroke-opacity:1" />
    <path
       style="fill:none;stroke:#000000;stroke-width:1px;stroke-linecap:butt;stroke-linejoin:miter;stroke-opacity:1"
       d="m 103.98369,777.33023 c 0,95.68749 0,95.68749 0,95.68749"
       id="path4781"
       inkscape:connector-curvature="0" />
    <path
       inkscape:connector-curvature="0"
       id="path4783"
       d="m 131.36464,777.33023 c 0,95.68749 0,95.68749 0,95.68749"
       style="fill:none;stroke:#000000;stroke-width:1px;stroke-linecap:butt;stroke-linejoin:miter;stroke-opacity:1" />
    <path
       style="fill:none;stroke:#000000;stroke-width:1px;stroke-linecap:butt;stroke-linejoin:miter;stroke-opacity:1"
       d="m 158.74561,777.33023 c 0,95.68749 0,95.68749 0,95.68749"
       id="path4785"
       inkscape:connector-curvature="0" />
    <rect
       style="fill:#000000;fill-opacity:0;fill-rule:evenodd;stroke:#000000;stroke-width:1;stroke-miterlimit:4;stroke-opacity:1;stroke-dasharray:1.99999999, 0.99999999;stroke-dashoffset:0"
       id="rect4977"
       width="30"
       height="30"
       x="34.285717"
       y="810.93365" />
    <rect
       y="888.79077"
       x="12.857142"
       height="139.28571"
       width="134.28571"
       id="rect4979"
       style="fill:#000000;fill-opacity:0;fill-rule:evenodd;stroke:#000000;stroke-width:1;stroke-miterlimit:4;stroke-opacity:1;stroke-dasharray:2.99999999, 1;stroke-dashoffset:0" />
    <path
       style="fill:none;stroke:#000000;stroke-width:1;stroke-linecap:butt;stroke-linejoin:miter;stroke-miterlimit:4;stroke-opacity:1;stroke-dasharray:1.99999999, 1;stroke-dashoffset:0"
       d="M 34.285714,810.93363 C 12.857143,889.50506 12.857143,889.50506 12.857143,889.50506"
       id="path4983"
       inkscape:connector-curvature="0" />
    <path
       inkscape:connector-curvature="0"
       id="path4985"
       d="m 63.857136,811.64787 c 83.714294,77.85715 83.714294,77.85715 83.714294,77.85715"
       style="fill:none;stroke:#000000;stroke-width:1;stroke-linecap:butt;stroke-linejoin:miter;stroke-miterlimit:4;stroke-opacity:1;stroke-dasharray:1.99999991, 0.99999997;stroke-dashoffset:0" />
    <g
       id="g4991"
       transform="translate(-167.85714,25)">
      <path
         style="fill:none;stroke:#000000;stroke-width:2.99999976;stroke-linecap:butt;stroke-linejoin:miter;stroke-opacity:1;marker-start:none"
         d="m 228.48742,881.36368 c 0,14.73346 0,14.77544 0,14.77544"
         id="path4987"
         inkscape:connector-curvature="0" />
      <path
         inkscape:connector-curvature="0"
         id="path4989"
         d="m 235.89591,888.94486 c -14.73348,0 -14.77545,0 -14.77545,0"
         style="fill:none;stroke:#000000;stroke-width:2.99999976;stroke-linecap:butt;stroke-linejoin:miter;stroke-opacity:1;marker-start:none" />
    </g>
    <g
       transform="translate(-109.28571,58.571428)"
       id="g4995">
      <path
         inkscape:connector-curvature="0"
         id="path4997"
         d="m 228.48742,881.36368 c 0,14.73346 0,14.77544 0,14.77544"
         style="fill:none;stroke:#000000;stroke-width:2.99999976;stroke-linecap:butt;stroke-linejoin:miter;stroke-opacity:1;marker-start:none" />
      <path
         style="fill:none;stroke:#000000;stroke-width:2.99999976;stroke-linecap:butt;stroke-linejoin:miter;stroke-opacity:1;marker-start:none"
         d="m 235.89591,888.94486 c -14.73348,0 -14.77545,0 -14.77545,0"
         id="path4999"
         inkscape:connector-curvature="0" />
    </g>
    <path
       inkscape:connector-curvature="0"
       id="path5005"
       d="m 100.89591,1008.2306 c -14.73348,0 -14.77545,0 -14.77545,0"
       style="fill:none;stroke:#000000;stroke-width:2.99999976;stroke-linecap:butt;stroke-linejoin:miter;stroke-opacity:1;marker-start:none" />
    <path
       style="fill:none;stroke:#000000;stroke-width:2.99999976;stroke-linecap:butt;stroke-linejoin:miter;stroke-opacity:1;marker-start:none"
       d="m 40.895912,976.80198 c -14.73348,0 -14.77545,0 -14.77545,0"
       id="path5009"
       inkscape:connector-curvature="0" />
    <g
       id="g5035">
      <path
         style="fill:none;stroke:#000000;stroke-width:2.99999976;stroke-linecap:butt;stroke-linejoin:miter;stroke-opacity:1;marker-start:none"
         d="m 220.50782,909.22082 c 0,101.62878 0,101.91828 0,101.91828"
         id="path5015"
         inkscape:connector-curvature="0" />
      <path
         inkscape:connector-curvature="0"
         id="path5017"
         d="m 271.6102,961.51441 c -101.62878,0 -101.91831,0 -101.91831,0"
         style="fill:none;stroke:#000000;stroke-width:2.99999976;stroke-linecap:butt;stroke-linejoin:miter;stroke-opacity:1;marker-start:none" />
    </g>
    <rect
       y="794.50513"
       x="97.857147"
       height="38.57143"
       width="38.57143"
       id="rect5081"
       style="fill:#000000;fill-opacity:0;fill-rule:evenodd;stroke:#000000;stroke-width:1;stroke-miterlimit:4;stroke-opacity:1;stroke-dasharray:2.00000002, 1;stroke-dashoffset:0" />
    <path
       style="fill:none;stroke:#000000;stroke-width:1;stroke-linecap:butt;stroke-linejoin:miter;stroke-miterlimit:4;stroke-opacity:1;stroke-dasharray:1.99999984, 0.99999993;stroke-dashoffset:0"
       d="M 98.142847,794.21927 C 170.86365,768.57134 170.86365,768.57134 170.86365,768.57134"
       id="path5083"
       inkscape:connector-curvature="0" />
    <path
       inkscape:connector-curvature="0"
       id="path5085"
       d="m 98.142847,833.79074 c 71.343003,52.52975 71.343003,52.52975 71.343003,52.52975"
       style="fill:none;stroke:#000000;stroke-width:1;stroke-linecap:butt;stroke-linejoin:miter;stroke-miterlimit:4;stroke-opacity:1;stroke-dasharray:1.99999989, 0.99999997;stroke-dashoffset:0" />
    <rect
       style="fill:#000000;fill-opacity:0;fill-rule:evenodd;stroke:#000000;stroke-width:1;stroke-miterlimit:4;stroke-opacity:1;stroke-dasharray:3.00000011, 1.00000003;stroke-dashoffset:0"
       id="rect5087"
       width="119.6385"
       height="119.64587"
       x="170.13742"
       y="767.71936" />
    <path
       style="fill:none;stroke:#000000;stroke-width:2.99999976;stroke-linecap:butt;stroke-linejoin:miter;stroke-opacity:1;marker-start:none"
       d="m 268.38289,790.29355 c -78.81161,0 -79.03614,0 -79.03614,0"
       id="path5093"
       inkscape:connector-curvature="0" />
    <path
       inkscape:connector-curvature="0"
       id="path5097"
       d="m 190.9841,868.70249 c 0,-78.81161 0,-79.03614 0,-79.03614"
       style="fill:none;stroke:#000000;stroke-width:2.99999976;stroke-linecap:butt;stroke-linejoin:miter;stroke-opacity:1;marker-start:none" />
    <path
       style="fill:none;stroke:#000000;stroke-width:2.99999976;stroke-linecap:butt;stroke-linejoin:miter;stroke-opacity:1;marker-start:none"
       d="m 267.75569,868.70249 c 0,-78.81161 0,-79.03614 0,-79.03614"
       id="path5099"
       inkscape:connector-curvature="0" />
    <path
       inkscape:connector-curvature="0"
       id="path5101"
       d="m 268.38289,867.57022 c -78.81161,0 -79.03614,0 -79.03614,0"
       style="fill:none;stroke:#000000;stroke-width:2.99999976;stroke-linecap:butt;stroke-linejoin:miter;stroke-opacity:1;marker-start:none" />
    <text
       xml:space="preserve"
       style="font-size:13px;font-style:normal;font-weight:normal;line-height:125%;letter-spacing:0px;word-spacing:0px;fill:#000000;fill-opacity:1;stroke:none;font-family:Sans"
       x="221.72849"
       y="856.89764"
       id="text5103"
       sodipodi:linespacing="125%"><tspan
         sodipodi:role="line"
         id="tspan5105"
         x="221.72849"
         y="856.89764"
         style="font-style:italic;-inkscape-font-specification:Sans Italic">p</tspan></text>
    <text
       xml:space="preserve"
       style="font-size:10.61194992px;font-style:normal;font-weight:normal;line-height:125%;letter-spacing:0px;word-spacing:0px;fill:#000000;fill-opacity:1;stroke:none;font-family:Sans"
       x="265.96555"
       y="744.93555"
       id="text5107"
       sodipodi:linespacing="125%"
       transform="scale(0.86222513,1.1597899)"><tspan
         sodipodi:role="line"
         id="tspan5109"
         x="265.96555"
         y="744.93555">1</tspan></text>
    <text
       sodipodi:linespacing="125%"
       id="text5111"
       y="831.64386"
       x="249.50768"
       style="font-size:13px;font-style:normal;font-weight:normal;line-height:125%;letter-spacing:0px;word-spacing:0px;fill:#000000;fill-opacity:1;stroke:none;font-family:Sans"
       xml:space="preserve"><tspan
         style="font-style:italic;-inkscape-font-specification:Sans Italic"
         y="831.64386"
         x="249.50768"
         id="tspan5113"
         sodipodi:role="line">p</tspan></text>
    <text
       transform="scale(0.86222513,1.1597899)"
       sodipodi:linespacing="125%"
       id="text5115"
       y="723.16107"
       x="298.18356"
       style="font-size:10.61194992px;font-style:normal;font-weight:normal;line-height:125%;letter-spacing:0px;word-spacing:0px;fill:#000000;fill-opacity:1;stroke:none;font-family:Sans"
       xml:space="preserve"><tspan
         y="723.16107"
         x="298.18356"
         id="tspan5117"
         sodipodi:role="line">2</tspan></text>
    <text
       xml:space="preserve"
       style="font-size:13px;font-style:normal;font-weight:normal;line-height:125%;letter-spacing:0px;word-spacing:0px;fill:#000000;fill-opacity:1;stroke:none;font-family:Sans"
       x="222.23355"
       y="802.34943"
       id="text5119"
       sodipodi:linespacing="125%"><tspan
         sodipodi:role="line"
         id="tspan5121"
         x="222.23355"
         y="802.34943"
         style="font-style:italic;-inkscape-font-specification:Sans Italic">p</tspan></text>
    <text
       xml:space="preserve"
       style="font-size:10.61194992px;font-style:normal;font-weight:normal;line-height:125%;letter-spacing:0px;word-spacing:0px;fill:#000000;fill-opacity:1;stroke:none;font-family:Sans"
       x="266.55133"
       y="697.90271"
       id="text5123"
       sodipodi:linespacing="125%"
       transform="scale(0.86222513,1.1597899)"><tspan
         sodipodi:role="line"
         id="tspan5125"
         x="266.55133"
         y="697.90271">3</tspan></text>
    <text
       sodipodi:linespacing="125%"
       id="text5127"
       y="830.63373"
       x="196.97974"
       style="font-size:13px;font-style:normal;font-weight:normal;line-height:125%;letter-spacing:0px;word-spacing:0px;fill:#000000;fill-opacity:1;stroke:none;font-family:Sans"
       xml:space="preserve"><tspan
         style="font-style:italic;-inkscape-font-specification:Sans Italic"
         y="830.63373"
         x="196.97974"
         id="tspan5129"
         sodipodi:role="line">p</tspan></text>
    <text
       transform="scale(0.86222513,1.1597899)"
       sodipodi:linespacing="125%"
       id="text5131"
       y="722.2901"
       x="237.26221"
       style="font-size:10.61194992px;font-style:normal;font-weight:normal;line-height:125%;letter-spacing:0px;word-spacing:0px;fill:#000000;fill-opacity:1;stroke:none;font-family:Sans"
       xml:space="preserve"><tspan
         y="722.2901"
         x="237.26221"
         id="tspan5133"
         sodipodi:role="line">4</tspan></text>
    <path
       sodipodi:type="arc"
       style="fill:#000000;fill-opacity:1;fill-rule:evenodd;stroke:none"
       id="path5154"
       sodipodi:cx="-41.921329"
       sodipodi:cy="128.77914"
       sodipodi:rx="3.0304577"
       sodipodi:ry="3.0304577"
       d="m -38.890872,128.77914 c 0,1.67368 -1.356782,3.03046 -3.030457,3.03046 -1.673676,0 -3.030458,-1.35678 -3.030458,-3.03046 0,-1.67367 1.356782,-3.03045 3.030458,-3.03045 1.673675,0 3.030457,1.35678 3.030457,3.03045 z"
       transform="matrix(1.4166667,0,0,1.4166667,250.55992,684.81463)" />
    <path
       transform="matrix(1.4166667,0,0,1.4166667,250.55992,608.04304)"
       d="m -38.890872,128.77914 c 0,1.67368 -1.356782,3.03046 -3.030457,3.03046 -1.673676,0 -3.030458,-1.35678 -3.030458,-3.03046 0,-1.67367 1.356782,-3.03045 3.030458,-3.03045 1.673675,0 3.030457,1.35678 3.030457,3.03045 z"
       sodipodi:ry="3.0304577"
       sodipodi:rx="3.0304577"
       sodipodi:cy="128.77914"
       sodipodi:cx="-41.921329"
       id="path5156"
       style="fill:#000000;fill-opacity:1;fill-rule:evenodd;stroke:none"
       sodipodi:type="arc" />
    <path
       sodipodi:type="arc"
       style="fill:#000000;fill-opacity:1;fill-rule:evenodd;stroke:none"
       id="path5158"
       sodipodi:cx="-41.921329"
       sodipodi:cy="128.77914"
       sodipodi:rx="3.0304577"
       sodipodi:ry="3.0304577"
       d="m -38.890872,128.77914 c 0,1.67368 -1.356782,3.03046 -3.030457,3.03046 -1.673676,0 -3.030458,-1.35678 -3.030458,-3.03046 0,-1.67367 1.356782,-3.03045 3.030458,-3.03045 1.673675,0 3.030457,1.35678 3.030457,3.03045 z"
       transform="matrix(1.4166667,0,0,1.4166667,326.82644,608.04304)" />
    <path
       transform="matrix(1.4166667,0,0,1.4166667,326.82644,683.80448)"
       d="m -38.890872,128.77914 c 0,1.67368 -1.356782,3.03046 -3.030457,3.03046 -1.673676,0 -3.030458,-1.35678 -3.030458,-3.03046 0,-1.67367 1.356782,-3.03045 3.030458,-3.03045 1.673675,0 3.030457,1.35678 3.030457,3.03045 z"
       sodipodi:ry="3.0304577"
       sodipodi:rx="3.0304577"
       sodipodi:cy="128.77914"
       sodipodi:cx="-41.921329"
       id="path5160"
       style="fill:#000000;fill-opacity:1;fill-rule:evenodd;stroke:none"
       sodipodi:type="arc" />
    <g
       id="g4215">
      <g
         id="g3934"
         inkscape:label="ink_ext_XXXXXX"
         transform="matrix(0.63542865,0,0,-0.63542865,175.84603,876.70457)">
        <g
           id="g3936"
           transform="scale(0.1,0.1)">
          <path
             inkscape:connector-curvature="0"
             d="m 157.656,137.543 c 0,19.41 -9.34,25.141 -15.797,25.141 -8.98,0 -17.609,-9.332 -17.609,-17.231 0,-4.672 1.797,-6.828 5.75,-10.769 7.547,-7.192 12.219,-16.532 12.219,-29.45 0,-15.0895 -21.91,-97.33166 -63.9417,-97.33166 -18.3085,0 -26.5781,12.56246 -26.5781,31.24996 0,20.1094 9.6992,46.3321 20.8399,76.1287 2.5,6.114 4.3007,11.141 4.3007,17.973 0,16.16 -11.4804,29.437 -29.4414,29.437 -33.7695,0 -47.4101188,-52.058 -47.4101188,-55.296 0,-3.59 3.5781288,-3.59 4.3007788,-3.59 3.58985,0 3.94922,0.718 5.75004,6.468 10.4179,36.27 25.8593,44.532 36.2773,44.532 2.8828,0 8.9727,0 8.9727,-11.5 0,-8.973 -3.5899,-18.672 -6.0899,-25.141 C 33.3867,76.5039 28.7188,59.9922 28.7188,44.543 28.7188,5.76172 60.3281,0.0117188 76.8477,0.0117188 137.188,0.0117188 157.656,118.895 157.656,137.563"
             style="fill:#000000;fill-opacity:1;fill-rule:nonzero;stroke:none"
             id="path3938" />
        </g>
      </g>
      <text
         xml:space="preserve"
         style="font-size:10.61194992px;font-style:normal;font-weight:normal;line-height:125%;letter-spacing:0px;word-spacing:0px;fill:#000000;fill-opacity:1;stroke:none;font-family:Sans"
         x="213.24512"
         y="760.61316"
         id="text5166"
         sodipodi:linespacing="125%"
         transform="scale(0.86222513,1.1597899)"><tspan
           sodipodi:role="line"
           id="tspan5168"
           x="213.24512"
           y="760.61316">1</tspan></text>
    </g>
    <g
       id="g4234">
      <g
         id="g3955"
         inkscape:label="ink_ext_XXXXXX"
         transform="matrix(0.63542865,0,0,-0.63542865,271.30544,876.70458)">
        <g
           id="g3957"
           transform="scale(0.1,0.1)">
          <path
             inkscape:connector-curvature="0"
             d="m 157.656,137.543 c 0,19.41 -9.34,25.141 -15.797,25.141 -8.98,0 -17.609,-9.332 -17.609,-17.231 0,-4.672 1.797,-6.828 5.75,-10.769 7.547,-7.192 12.219,-16.532 12.219,-29.45 0,-15.0895 -21.91,-97.33166 -63.9417,-97.33166 -18.3085,0 -26.5781,12.56246 -26.5781,31.24996 0,20.1094 9.6992,46.3321 20.8399,76.1287 2.5,6.114 4.3007,11.141 4.3007,17.973 0,16.16 -11.4804,29.437 -29.4414,29.437 -33.7695,0 -47.4101188,-52.058 -47.4101188,-55.296 0,-3.59 3.5781288,-3.59 4.3007788,-3.59 3.58985,0 3.94922,0.718 5.75004,6.468 10.4179,36.27 25.8593,44.532 36.2773,44.532 2.8828,0 8.9727,0 8.9727,-11.5 0,-8.973 -3.5899,-18.672 -6.0899,-25.141 C 33.3867,76.5039 28.7188,59.9922 28.7188,44.543 28.7188,5.76172 60.3281,0.0117188 76.8477,0.0117188 137.188,0.0117188 157.656,118.895 157.656,137.563"
             style="fill:#000000;fill-opacity:1;fill-rule:nonzero;stroke:none"
             id="path3959" />
        </g>
      </g>
      <text
         transform="scale(0.86222513,1.1597899)"
         sodipodi:linespacing="125%"
         id="text5174"
         y="760.61316"
         x="323.95798"
         style="font-size:10.61194992px;font-style:normal;font-weight:normal;line-height:125%;letter-spacing:0px;word-spacing:0px;fill:#000000;fill-opacity:1;stroke:none;font-family:Sans"
         xml:space="preserve"><tspan
           y="760.61316"
           x="323.95798"
           id="tspan5176"
           sodipodi:role="line">2</tspan></text>
    </g>
    <g
       id="g4272"
       transform="translate(0,1.6083774)">
      <g
         transform="matrix(0.63542865,0,0,-0.63542865,175.84603,779.72991)"
         inkscape:label="ink_ext_XXXXXX"
         id="g3943">
        <g
           transform="scale(0.1,0.1)"
           id="g3945">
          <path
             id="path3947"
             style="fill:#000000;fill-opacity:1;fill-rule:nonzero;stroke:none"
             d="m 157.656,137.543 c 0,19.41 -9.34,25.141 -15.797,25.141 -8.98,0 -17.609,-9.332 -17.609,-17.231 0,-4.672 1.797,-6.828 5.75,-10.769 7.547,-7.192 12.219,-16.532 12.219,-29.45 0,-15.0895 -21.91,-97.33166 -63.9417,-97.33166 -18.3085,0 -26.5781,12.56246 -26.5781,31.24996 0,20.1094 9.6992,46.3321 20.8399,76.1287 2.5,6.114 4.3007,11.141 4.3007,17.973 0,16.16 -11.4804,29.437 -29.4414,29.437 -33.7695,0 -47.4101188,-52.058 -47.4101188,-55.296 0,-3.59 3.5781288,-3.59 4.3007788,-3.59 3.58985,0 3.94922,0.718 5.75004,6.468 10.4179,36.27 25.8593,44.532 36.2773,44.532 2.8828,0 8.9727,0 8.9727,-11.5 0,-8.973 -3.5899,-18.672 -6.0899,-25.141 C 33.3867,76.5039 28.7188,59.9922 28.7188,44.543 28.7188,5.76172 60.3281,0.0117188 76.8477,0.0117188 137.188,0.0117188 157.656,118.895 157.656,137.563"
             inkscape:connector-curvature="0" />
        </g>
      </g>
      <text
         transform="scale(0.86222513,1.1597899)"
         sodipodi:linespacing="125%"
         id="text5182"
         y="676.99921"
         x="213.24512"
         style="font-size:10.61194992px;font-style:normal;font-weight:normal;line-height:125%;letter-spacing:0px;word-spacing:0px;fill:#000000;fill-opacity:1;stroke:none;font-family:Sans"
         xml:space="preserve"><tspan
           y="676.99921"
           x="213.24512"
           id="tspan5184"
           sodipodi:role="line">4</tspan></text>
    </g>
    <g
       id="g4253"
       transform="translate(-3.0304576,1.5152288)">
      <g
         transform="matrix(0.63542865,0,0,-0.63542865,270.29528,779.72991)"
         inkscape:label="ink_ext_XXXXXX"
         id="g3949">
        <g
           transform="scale(0.1,0.1)"
           id="g3951">
          <path
             id="path3953"
             style="fill:#000000;fill-opacity:1;fill-rule:nonzero;stroke:none"
             d="m 157.656,137.543 c 0,19.41 -9.34,25.141 -15.797,25.141 -8.98,0 -17.609,-9.332 -17.609,-17.231 0,-4.672 1.797,-6.828 5.75,-10.769 7.547,-7.192 12.219,-16.532 12.219,-29.45 0,-15.0895 -21.91,-97.33166 -63.9417,-97.33166 -18.3085,0 -26.5781,12.56246 -26.5781,31.24996 0,20.1094 9.6992,46.3321 20.8399,76.1287 2.5,6.114 4.3007,11.141 4.3007,17.973 0,16.16 -11.4804,29.437 -29.4414,29.437 -33.7695,0 -47.4101188,-52.058 -47.4101188,-55.296 0,-3.59 3.5781288,-3.59 4.3007788,-3.59 3.58985,0 3.94922,0.718 5.75004,6.468 10.4179,36.27 25.8593,44.532 36.2773,44.532 2.8828,0 8.9727,0 8.9727,-11.5 0,-8.973 -3.5899,-18.672 -6.0899,-25.141 C 33.3867,76.5039 28.7188,59.9922 28.7188,44.543 28.7188,5.76172 60.3281,0.0117188 76.8477,0.0117188 137.188,0.0117188 157.656,118.895 157.656,137.563"
             inkscape:connector-curvature="0" />
        </g>
      </g>
      <text
         xml:space="preserve"
         style="font-size:10.61194992px;font-style:normal;font-weight:normal;line-height:125%;letter-spacing:0px;word-spacing:0px;fill:#000000;fill-opacity:1;stroke:none;font-family:Sans"
         x="322.78641"
         y="676.99921"
         id="text5190"
         sodipodi:linespacing="125%"
         transform="scale(0.86222513,1.1597899)"><tspan
           sodipodi:role="line"
           id="tspan5192"
           x="322.78641"
           y="676.99921">3</tspan></text>
    </g>
    <g
       id="g4222"
       transform="translate(50.487322,135.84521)">
      <g
         transform="matrix(0.63542865,0,0,-0.63542865,175.84603,876.70457)"
         inkscape:label="ink_ext_XXXXXX"
         id="g4224">
        <g
           transform="scale(0.1,0.1)"
           id="g4226">
          <path
             id="path4228"
             style="fill:#000000;fill-opacity:1;fill-rule:nonzero;stroke:none"
             d="m 157.656,137.543 c 0,19.41 -9.34,25.141 -15.797,25.141 -8.98,0 -17.609,-9.332 -17.609,-17.231 0,-4.672 1.797,-6.828 5.75,-10.769 7.547,-7.192 12.219,-16.532 12.219,-29.45 0,-15.0895 -21.91,-97.33166 -63.9417,-97.33166 -18.3085,0 -26.5781,12.56246 -26.5781,31.24996 0,20.1094 9.6992,46.3321 20.8399,76.1287 2.5,6.114 4.3007,11.141 4.3007,17.973 0,16.16 -11.4804,29.437 -29.4414,29.437 -33.7695,0 -47.4101188,-52.058 -47.4101188,-55.296 0,-3.59 3.5781288,-3.59 4.3007788,-3.59 3.58985,0 3.94922,0.718 5.75004,6.468 10.4179,36.27 25.8593,44.532 36.2773,44.532 2.8828,0 8.9727,0 8.9727,-11.5 0,-8.973 -3.5899,-18.672 -6.0899,-25.141 C 33.3867,76.5039 28.7188,59.9922 28.7188,44.543 28.7188,5.76172 60.3281,0.0117188 76.8477,0.0117188 137.188,0.0117188 157.656,118.895 157.656,137.563"
             inkscape:connector-curvature="0" />
        </g>
      </g>
      <text
         transform="scale(0.86222513,1.1597899)"
         sodipodi:linespacing="125%"
         id="text4230"
         y="760.61316"
         x="213.24512"
         style="font-size:10.61194992px;font-style:normal;font-weight:normal;line-height:125%;letter-spacing:0px;word-spacing:0px;fill:#000000;fill-opacity:1;stroke:none;font-family:Sans"
         xml:space="preserve"><tspan
           y="760.61316"
           x="213.24512"
           id="tspan4232"
           sodipodi:role="line">1</tspan></text>
    </g>
    <g
       id="g4241"
       transform="translate(-9.0554785,72.669706)">
      <g
         transform="matrix(0.63542865,0,0,-0.63542865,271.30544,876.70458)"
         inkscape:label="ink_ext_XXXXXX"
         id="g4243">
        <g
           transform="scale(0.1,0.1)"
           id="g4245">
          <path
             id="path4247"
             style="fill:#000000;fill-opacity:1;fill-rule:nonzero;stroke:none"
             d="m 157.656,137.543 c 0,19.41 -9.34,25.141 -15.797,25.141 -8.98,0 -17.609,-9.332 -17.609,-17.231 0,-4.672 1.797,-6.828 5.75,-10.769 7.547,-7.192 12.219,-16.532 12.219,-29.45 0,-15.0895 -21.91,-97.33166 -63.9417,-97.33166 -18.3085,0 -26.5781,12.56246 -26.5781,31.24996 0,20.1094 9.6992,46.3321 20.8399,76.1287 2.5,6.114 4.3007,11.141 4.3007,17.973 0,16.16 -11.4804,29.437 -29.4414,29.437 -33.7695,0 -47.4101188,-52.058 -47.4101188,-55.296 0,-3.59 3.5781288,-3.59 4.3007788,-3.59 3.58985,0 3.94922,0.718 5.75004,6.468 10.4179,36.27 25.8593,44.532 36.2773,44.532 2.8828,0 8.9727,0 8.9727,-11.5 0,-8.973 -3.5899,-18.672 -6.0899,-25.141 C 33.3867,76.5039 28.7188,59.9922 28.7188,44.543 28.7188,5.76172 60.3281,0.0117188 76.8477,0.0117188 137.188,0.0117188 157.656,118.895 157.656,137.563"
             inkscape:connector-curvature="0" />
        </g>
      </g>
      <text
         xml:space="preserve"
         style="font-size:10.61194992px;font-style:normal;font-weight:normal;line-height:125%;letter-spacing:0px;word-spacing:0px;fill:#000000;fill-opacity:1;stroke:none;font-family:Sans"
         x="323.95798"
         y="760.61316"
         id="text4249"
         sodipodi:linespacing="125%"
         transform="scale(0.86222513,1.1597899)"><tspan
           sodipodi:role="line"
           id="tspan4251"
           x="323.95798"
           y="760.61316">2</tspan></text>
    </g>
    <g
       transform="translate(-70.690373,132.85536)"
       id="g4260">
      <g
         id="g4262"
         inkscape:label="ink_ext_XXXXXX"
         transform="matrix(0.63542865,0,0,-0.63542865,270.29528,779.72991)">
        <g
           id="g4264"
           transform="scale(0.1,0.1)">
          <path
             inkscape:connector-curvature="0"
             d="m 157.656,137.543 c 0,19.41 -9.34,25.141 -15.797,25.141 -8.98,0 -17.609,-9.332 -17.609,-17.231 0,-4.672 1.797,-6.828 5.75,-10.769 7.547,-7.192 12.219,-16.532 12.219,-29.45 0,-15.0895 -21.91,-97.33166 -63.9417,-97.33166 -18.3085,0 -26.5781,12.56246 -26.5781,31.24996 0,20.1094 9.6992,46.3321 20.8399,76.1287 2.5,6.114 4.3007,11.141 4.3007,17.973 0,16.16 -11.4804,29.437 -29.4414,29.437 -33.7695,0 -47.4101188,-52.058 -47.4101188,-55.296 0,-3.59 3.5781288,-3.59 4.3007788,-3.59 3.58985,0 3.94922,0.718 5.75004,6.468 10.4179,36.27 25.8593,44.532 36.2773,44.532 2.8828,0 8.9727,0 8.9727,-11.5 0,-8.973 -3.5899,-18.672 -6.0899,-25.141 C 33.3867,76.5039 28.7188,59.9922 28.7188,44.543 28.7188,5.76172 60.3281,0.0117188 76.8477,0.0117188 137.188,0.0117188 157.656,118.895 157.656,137.563"
             style="fill:#000000;fill-opacity:1;fill-rule:nonzero;stroke:none"
             id="path4266" />
        </g>
      </g>
      <text
         transform="scale(0.86222513,1.1597899)"
         sodipodi:linespacing="125%"
         id="text4268"
         y="676.99921"
         x="322.78641"
         style="font-size:10.61194992px;font-style:normal;font-weight:normal;line-height:125%;letter-spacing:0px;word-spacing:0px;fill:#000000;fill-opacity:1;stroke:none;font-family:Sans"
         xml:space="preserve"><tspan
           y="676.99921"
           x="322.78641"
           id="tspan4270"
           sodipodi:role="line">3</tspan></text>
    </g>
    <g
       transform="matrix(0.63542865,0,0,-0.63542865,166.75466,979.32818)"
       inkscape:label="ink_ext_XXXXXX"
       id="g4281">
      <g
         transform="scale(0.1,0.1)"
         id="g4283">
        <path
           id="path4285"
           style="fill:#000000;fill-opacity:1;fill-rule:nonzero;stroke:none"
           d="m 157.656,137.543 c 0,19.41 -9.34,25.141 -15.797,25.141 -8.98,0 -17.609,-9.332 -17.609,-17.231 0,-4.672 1.797,-6.828 5.75,-10.769 7.547,-7.192 12.219,-16.532 12.219,-29.45 0,-15.0895 -21.91,-97.33166 -63.9417,-97.33166 -18.3085,0 -26.5781,12.56246 -26.5781,31.24996 0,20.1094 9.6992,46.3321 20.8399,76.1287 2.5,6.114 4.3007,11.141 4.3007,17.973 0,16.16 -11.4804,29.437 -29.4414,29.437 -33.7695,0 -47.4101188,-52.058 -47.4101188,-55.296 0,-3.59 3.5781288,-3.59 4.3007788,-3.59 3.58985,0 3.94922,0.718 5.75004,6.468 10.4179,36.27 25.8593,44.532 36.2773,44.532 2.8828,0 8.9727,0 8.9727,-11.5 0,-8.973 -3.5899,-18.672 -6.0899,-25.141 C 33.3867,76.5039 28.7188,59.9922 28.7188,44.543 28.7188,5.76172 60.3281,0.0117188 76.8477,0.0117188 137.188,0.0117188 157.656,118.895 157.656,137.563"
           inkscape:connector-curvature="0" />
      </g>
    </g>
    <text
       transform="scale(0.86222513,1.1597899)"
       sodipodi:linespacing="125%"
       id="text4287"
       y="849.09784"
       x="202.70103"
       style="font-size:10.61194992px;font-style:normal;font-weight:normal;line-height:125%;letter-spacing:0px;word-spacing:0px;fill:#000000;fill-opacity:1;stroke:none;font-family:Sans"
       xml:space="preserve"><tspan
         y="849.09784"
         x="202.70103"
         id="tspan4289"
         sodipodi:role="line">4</tspan></text>
    <g
       id="g4301"
       transform="translate(-0.625,0.98214285)">
      <path
         sodipodi:type="arc"
         style="fill:#000000;fill-opacity:1;fill-rule:evenodd;stroke:none"
         id="path4291"
         sodipodi:cx="-41.921329"
         sodipodi:cy="128.77914"
         sodipodi:rx="3.0304577"
         sodipodi:ry="3.0304577"
         d="m -38.890872,128.77914 c 0,1.67368 -1.356782,3.03046 -3.030457,3.03046 -1.673676,0 -3.030458,-1.35678 -3.030458,-3.03046 0,-1.67367 1.356782,-3.03045 3.030458,-3.03045 1.673675,0 3.030457,1.35678 3.030457,3.03045 z"
         transform="matrix(1.75,0,0,1.75,294.01338,734.81645)" />
      <path
         transform="matrix(1.75,0,0,1.75,294.01337,687.66062)"
         d="m -38.890872,128.77914 c 0,1.67368 -1.356782,3.03046 -3.030457,3.03046 -1.673676,0 -3.030458,-1.35678 -3.030458,-3.03046 0,-1.67367 1.356782,-3.03045 3.030458,-3.03045 1.673675,0 3.030457,1.35678 3.030457,3.03045 z"
         sodipodi:ry="3.0304577"
         sodipodi:rx="3.0304577"
         sodipodi:cy="128.77914"
         sodipodi:cx="-41.921329"
         id="path4293"
         style="fill:#000000;fill-opacity:1;fill-rule:evenodd;stroke:none"
         sodipodi:type="arc" />
      <path
         sodipodi:type="arc"
         style="fill:#000000;fill-opacity:1;fill-rule:evenodd;stroke:none"
         id="path4295"
         sodipodi:cx="-41.921329"
         sodipodi:cy="128.77914"
         sodipodi:rx="3.0304577"
         sodipodi:ry="3.0304577"
         d="m -38.890872,128.77914 c 0,1.67368 -1.356782,3.03046 -3.030457,3.03046 -1.673676,0 -3.030458,-1.35678 -3.030458,-3.03046 0,-1.67367 1.356782,-3.03045 3.030458,-3.03045 1.673675,0 3.030457,1.35678 3.030457,3.03045 z"
         transform="matrix(1.75,0,0,1.75,341.16923,734.81646)" />
      <path
         transform="matrix(1.75,0,0,1.75,246.85752,734.81646)"
         d="m -38.890872,128.77914 c 0,1.67368 -1.356782,3.03046 -3.030457,3.03046 -1.673676,0 -3.030458,-1.35678 -3.030458,-3.03046 0,-1.67367 1.356782,-3.03045 3.030458,-3.03045 1.673675,0 3.030457,1.35678 3.030457,3.03045 z"
         sodipodi:ry="3.0304577"
         sodipodi:rx="3.0304577"
         sodipodi:cy="128.77914"
         sodipodi:cx="-41.921329"
         id="path4297"
         style="fill:#000000;fill-opacity:1;fill-rule:evenodd;stroke:none"
         sodipodi:type="arc" />
      <path
         sodipodi:type="arc"
         style="fill:#000000;fill-opacity:1;fill-rule:evenodd;stroke:none"
         id="path4299"
         sodipodi:cx="-41.921329"
         sodipodi:cy="128.77914"
         sodipodi:rx="3.0304577"
         sodipodi:ry="3.0304577"
         d="m -38.890872,128.77914 c 0,1.67368 -1.356782,3.03046 -3.030457,3.03046 -1.673676,0 -3.030458,-1.35678 -3.030458,-3.03046 0,-1.67367 1.356782,-3.03045 3.030458,-3.03045 1.673675,0 3.030457,1.35678 3.030457,3.03045 z"
         transform="matrix(1.75,0,0,1.75,294.01337,781.9723)" />
    </g>
    <g
       id="g4308"
       transform="translate(-145.3585,0.86357589)">
      <path
         transform="matrix(1.75,0,0,1.75,294.01338,734.81645)"
         d="m -38.890872,128.77914 c 0,1.67368 -1.356782,3.03046 -3.030457,3.03046 -1.673676,0 -3.030458,-1.35678 -3.030458,-3.03046 0,-1.67367 1.356782,-3.03045 3.030458,-3.03045 1.673675,0 3.030457,1.35678 3.030457,3.03045 z"
         sodipodi:ry="3.0304577"
         sodipodi:rx="3.0304577"
         sodipodi:cy="128.77914"
         sodipodi:cx="-41.921329"
         id="path4310"
         style="fill:#000000;fill-opacity:1;fill-rule:evenodd;stroke:none"
         sodipodi:type="arc" />
      <path
         sodipodi:type="arc"
         style="fill:#000000;fill-opacity:1;fill-rule:evenodd;stroke:none"
         id="path4312"
         sodipodi:cx="-41.921329"
         sodipodi:cy="128.77914"
         sodipodi:rx="3.0304577"
         sodipodi:ry="3.0304577"
         d="m -38.890872,128.77914 c 0,1.67368 -1.356782,3.03046 -3.030457,3.03046 -1.673676,0 -3.030458,-1.35678 -3.030458,-3.03046 0,-1.67367 1.356782,-3.03045 3.030458,-3.03045 1.673675,0 3.030457,1.35678 3.030457,3.03045 z"
         transform="matrix(1.75,0,0,1.75,294.01337,687.66062)" />
      <path
         transform="matrix(1.75,0,0,1.75,341.16923,734.81646)"
         d="m -38.890872,128.77914 c 0,1.67368 -1.356782,3.03046 -3.030457,3.03046 -1.673676,0 -3.030458,-1.35678 -3.030458,-3.03046 0,-1.67367 1.356782,-3.03045 3.030458,-3.03045 1.673675,0 3.030457,1.35678 3.030457,3.03045 z"
         sodipodi:ry="3.0304577"
         sodipodi:rx="3.0304577"
         sodipodi:cy="128.77914"
         sodipodi:cx="-41.921329"
         id="path4314"
         style="fill:#000000;fill-opacity:1;fill-rule:evenodd;stroke:none"
         sodipodi:type="arc" />
      <path
         sodipodi:type="arc"
         style="fill:#000000;fill-opacity:1;fill-rule:evenodd;stroke:none"
         id="path4316"
         sodipodi:cx="-41.921329"
         sodipodi:cy="128.77914"
         sodipodi:rx="3.0304577"
         sodipodi:ry="3.0304577"
         d="m -38.890872,128.77914 c 0,1.67368 -1.356782,3.03046 -3.030457,3.03046 -1.673676,0 -3.030458,-1.35678 -3.030458,-3.03046 0,-1.67367 1.356782,-3.03045 3.030458,-3.03045 1.673675,0 3.030457,1.35678 3.030457,3.03045 z"
         transform="matrix(1.75,0,0,1.75,246.85752,734.81646)" />
      <path
         transform="matrix(1.75,0,0,1.75,294.01337,781.9723)"
         d="m -38.890872,128.77914 c 0,1.67368 -1.356782,3.03046 -3.030457,3.03046 -1.673676,0 -3.030458,-1.35678 -3.030458,-3.03046 0,-1.67367 1.356782,-3.03045 3.030458,-3.03045 1.673675,0 3.030457,1.35678 3.030457,3.03045 z"
         sodipodi:ry="3.0304577"
         sodipodi:rx="3.0304577"
         sodipodi:cy="128.77914"
         sodipodi:cx="-41.921329"
         id="path4318"
         style="fill:#000000;fill-opacity:1;fill-rule:evenodd;stroke:none"
         sodipodi:type="arc" />
    </g>
    <g
       id="g4339"
       inkscape:label="ink_ext_XXXXXX"
       transform="matrix(0.63542865,0,0,-0.63542865,224.79037,956.64961)">
      <g
         id="g4341"
         transform="scale(0.1,0.1)">
        <path
           inkscape:connector-curvature="0"
           d="m 157.656,137.543 c 0,19.41 -9.34,25.141 -15.797,25.141 -8.98,0 -17.609,-9.332 -17.609,-17.231 0,-4.672 1.797,-6.828 5.75,-10.769 7.547,-7.192 12.219,-16.532 12.219,-29.45 0,-15.0895 -21.91,-97.33166 -63.9417,-97.33166 -18.3085,0 -26.5781,12.56246 -26.5781,31.24996 0,20.1094 9.6992,46.3321 20.8399,76.1287 2.5,6.114 4.3007,11.141 4.3007,17.973 0,16.16 -11.4804,29.437 -29.4414,29.437 -33.7695,0 -47.4101188,-52.058 -47.4101188,-55.296 0,-3.59 3.5781288,-3.59 4.3007788,-3.59 3.58985,0 3.94922,0.718 5.75004,6.468 10.4179,36.27 25.8593,44.532 36.2773,44.532 2.8828,0 8.9727,0 8.9727,-11.5 0,-8.973 -3.5899,-18.672 -6.0899,-25.141 C 33.3867,76.5039 28.7188,59.9922 28.7188,44.543 28.7188,5.76172 60.3281,0.0117188 76.8477,0.0117188 137.188,0.0117188 157.656,118.895 157.656,137.563"
           style="fill:#000000;fill-opacity:1;fill-rule:nonzero;stroke:none"
           id="path4343" />
      </g>
    </g>
    <text
       xml:space="preserve"
       style="font-size:13px;font-style:normal;font-weight:normal;line-height:125%;letter-spacing:0px;word-spacing:0px;fill:#000000;fill-opacity:1;stroke:none;font-family:Sans"
       x="176.42857"
       y="978.07648"
       id="text4345"
       sodipodi:linespacing="125%"><tspan
         sodipodi:role="line"
         id="tspan4347"
         x="176.42857"
         y="978.07648"
         style="font-style:italic;-inkscape-font-specification:Sans Italic">'</tspan></text>
    <text
       sodipodi:linespacing="125%"
       id="text4349"
       y="911.64789"
       x="209.42857"
       style="font-size:13px;font-style:normal;font-weight:normal;line-height:125%;letter-spacing:0px;word-spacing:0px;fill:#000000;fill-opacity:1;stroke:none;font-family:Sans"
       xml:space="preserve"><tspan
         style="font-style:italic;-inkscape-font-specification:Sans Italic"
         y="911.64789"
         x="209.42857"
         id="tspan4351"
         sodipodi:role="line">'</tspan></text>
    <text
       xml:space="preserve"
       style="font-size:11.79401684px;font-style:normal;font-weight:normal;line-height:125%;letter-spacing:0px;word-spacing:0px;fill:#000000;fill-opacity:1;stroke:none;font-family:Sans"
       x="300.50058"
       y="859.47729"
       id="text4353"
       sodipodi:linespacing="125%"
       transform="scale(0.90723207,1.1022538)"><tspan
         sodipodi:role="line"
         id="tspan4355"
         x="300.50058"
         y="859.47729"
         style="font-style:italic;-inkscape-font-specification:Sans Italic">'</tspan></text>
    <text
       transform="scale(0.90723207,1.1022538)"
       sodipodi:linespacing="125%"
       id="text4357"
       y="916.82733"
       x="261.13437"
       style="font-size:11.79401684px;font-style:normal;font-weight:normal;line-height:125%;letter-spacing:0px;word-spacing:0px;fill:#000000;fill-opacity:1;stroke:none;font-family:Sans"
       xml:space="preserve"><tspan
         style="font-style:italic;-inkscape-font-specification:Sans Italic"
         y="916.82733"
         x="261.13437"
         id="tspan4359"
         sodipodi:role="line">'</tspan></text>
  </g>
</svg>
